<?xml version="1.0" standalone="no"?><svg xmlns="http://www.w3.org/2000/svg" viewBox="0 0 1440 320"><path fill="#ad343e" fill-opacity="1" d="M0,160L7.1,144C14.1,128,28,96,42,101.3C56.5,107,71,149,85,165.3C98.8,181,113,171,127,165.3C141.2,160,155,160,169,144C183.5,128,198,96,212,80C225.9,64,240,64,254,69.3C268.2,75,282,85,296,117.3C310.6,149,325,203,339,213.3C352.9,224,367,192,381,181.3C395.3,171,409,181,424,197.3C437.6,213,452,235,466,224C480,213,494,171,508,133.3C522.4,96,536,64,551,53.3C564.7,43,579,53,593,58.7C607.1,64,621,64,635,101.3C649.4,139,664,213,678,224C691.8,235,706,181,720,186.7C734.1,192,748,256,762,266.7C776.5,277,791,235,805,192C818.8,149,833,107,847,117.3C861.2,128,875,192,889,229.3C903.5,267,918,277,932,266.7C945.9,256,960,224,974,229.3C988.2,235,1002,277,1016,272C1030.6,267,1045,213,1059,170.7C1072.9,128,1087,96,1101,96C1115.3,96,1129,128,1144,133.3C1157.6,139,1172,117,1186,128C1200,139,1214,181,1228,165.3C1242.4,149,1256,75,1271,53.3C1284.7,32,1299,64,1313,101.3C1327.1,139,1341,181,1355,181.3C1369.4,181,1384,139,1398,112C1411.8,85,1426,75,1433,69.3L1440,64L1440,320L1432.9,320C1425.9,320,1412,320,1398,320C1383.5,320,1369,320,1355,320C1341.2,320,1327,320,1313,320C1298.8,320,1285,320,1271,320C1256.5,320,1242,320,1228,320C1214.1,320,1200,320,1186,320C1171.8,320,1158,320,1144,320C1129.4,320,1115,320,1101,320C1087.1,320,1073,320,1059,320C1044.7,320,1031,320,1016,320C1002.4,320,988,320,974,320C960,320,946,320,932,320C917.6,320,904,320,889,320C875.3,320,861,320,847,320C832.9,320,819,320,805,320C790.6,320,776,320,762,320C748.2,320,734,320,720,320C705.9,320,692,320,678,320C663.5,320,649,320,635,320C621.2,320,607,320,593,320C578.8,320,565,320,551,320C536.5,320,522,320,508,320C494.1,320,480,320,466,320C451.8,320,438,320,424,320C409.4,320,395,320,381,320C367.1,320,353,320,339,320C324.7,320,311,320,296,320C282.4,320,268,320,254,320C240,320,226,320,212,320C197.6,320,184,320,169,320C155.3,320,141,320,127,320C112.9,320,99,320,85,320C70.6,320,56,320,42,320C28.2,320,14,320,7,320L0,320Z"></path></svg>