<?xml version="1.0" standalone="no"?><svg xmlns="http://www.w3.org/2000/svg" viewBox="0 0 1440 320"><path fill="#ad343e" fill-opacity="1" d="M0,288L45,64L90,192L135,288L180,32L225,64L270,96L315,288L360,64L405,224L450,224L495,320L540,64L585,128L630,256L675,320L720,256L765,160L810,32L855,96L900,160L945,288L990,192L1035,160L1080,128L1125,160L1170,32L1215,224L1260,192L1305,224L1350,32L1395,160L1440,96L1440,320L1395,320L1350,320L1305,320L1260,320L1215,320L1170,320L1125,320L1080,320L1035,320L990,320L945,320L900,320L855,320L810,320L765,320L720,320L675,320L630,320L585,320L540,320L495,320L450,320L405,320L360,320L315,320L270,320L225,320L180,320L135,320L90,320L45,320L0,320Z"></path></svg>