<?xml version="1.0" standalone="no"?><svg xmlns="http://www.w3.org/2000/svg" viewBox="0 0 1440 320"><path fill="#ad343e" fill-opacity="1" d="M0,160L12.6,144C25.3,128,51,96,76,101.3C101.1,107,126,149,152,154.7C176.8,160,202,128,227,133.3C252.6,139,278,181,303,181.3C328.4,181,354,139,379,128C404.2,117,429,139,455,170.7C480,203,505,245,531,240C555.8,235,581,181,606,181.3C631.6,181,657,235,682,256C707.4,277,733,267,758,240C783.2,213,808,171,834,133.3C858.9,96,884,64,909,80C934.7,96,960,160,985,192C1010.5,224,1036,224,1061,197.3C1086.3,171,1112,117,1137,128C1162.1,139,1187,213,1213,229.3C1237.9,245,1263,203,1288,181.3C1313.7,160,1339,160,1364,170.7C1389.5,181,1415,203,1427,213.3L1440,224L1440,320L1427.4,320C1414.7,320,1389,320,1364,320C1338.9,320,1314,320,1288,320C1263.2,320,1238,320,1213,320C1187.4,320,1162,320,1137,320C1111.6,320,1086,320,1061,320C1035.8,320,1011,320,985,320C960,320,935,320,909,320C884.2,320,859,320,834,320C808.4,320,783,320,758,320C732.6,320,707,320,682,320C656.8,320,632,320,606,320C581.1,320,556,320,531,320C505.3,320,480,320,455,320C429.5,320,404,320,379,320C353.7,320,328,320,303,320C277.9,320,253,320,227,320C202.1,320,177,320,152,320C126.3,320,101,320,76,320C50.5,320,25,320,13,320L0,320Z"></path></svg>